<svg xmlns="http://www.w3.org/2000/svg" fill="none" viewBox="0 0 48 48" id="Cafe-Outline--Streamline-Ionic-Outline" height="48" width="48">
  <desc>
    Cafe Outline Streamline Icon: https://streamlinehq.com
  </desc>
  <path stroke="#b3b388" stroke-linecap="round" stroke-linejoin="round" d="M36.6638 5.0032h7.2375c0.48 0 0.9402 0.1906 1.2795 0.5299 0.3393 0.3394 0.53 0.7996 0.53 1.2795v3.8449c0 1.3797 -0.5481 2.7028 -1.5236 3.6785 -0.9756 0.9755 -2.2988 1.5236 -3.6785 1.5236h-3.8449" stroke-width="3"></path>
  <path stroke="#b3b388" stroke-linecap="round" stroke-linejoin="round" d="M5.9073 5.0032h30.7565v21.7105c0 1.1879 -0.2339 2.3643 -0.6886 3.4617 -0.4546 1.0976 -1.121 2.0947 -1.9608 2.9348 -0.8401 0.84 -1.8373 1.5064 -2.9348 1.9608 -1.0975 0.4547 -2.2738 0.6887 -3.4618 0.6887H14.9533c-2.3991 0 -4.7 -0.9531 -6.3965 -2.6495 -1.6964 -1.6964 -2.6495 -3.9974 -2.6495 -6.3965V5.0032Z" stroke-width="3"></path>
  <path stroke="#b3b388" stroke-linecap="round" stroke-linejoin="round" d="M2.2892 42.9968h37.9934" stroke-width="3"></path>
</svg>