<?xml version="1.0" encoding="UTF-8"?>
<svg xmlns="http://www.w3.org/2000/svg" id="Layer_1" data-name="Layer 1" viewBox="0 0 24 24">
  <path d="m23.5,18h-3.998c-1.255,0-2.462-.53-3.312-1.453l-2.809-3.052c-.551-.615-.499-1.562.116-2.113.551-.494,1.394-.507,1.934-.055l3.179,3.074c.199.192.516.188.707-.012.192-.199.187-.515-.012-.707l-3.206-3.098c-.596-.501-1.375-.676-2.101-.531v-1.554c0-.526-.091-1.031-.257-1.5h3.127c1.575,0,3.095.571,4.281,1.608l2.021,1.768c.095.083.212.124.329.124.139,0,.277-.058.376-.171.182-.208.161-.523-.047-.706l-2.021-1.768c-1.368-1.196-3.122-1.855-4.939-1.855h-3.63c-.808-1.205-2.183-2-3.74-2h-1.5v-.5c0-1.93-1.57-3.5-3.5-3.5h-1C1.57,0,0,1.57,0,3.5v17c0,1.93,1.57,3.5,3.5,3.5h1c1.93,0,3.5-1.57,3.5-3.5v-.5h1.5c2.434,0,4.423-1.943,4.498-4.359l1.456,1.583c1.039,1.129,2.514,1.776,4.048,1.776h3.998c.276,0,.5-.224.5-.5s-.224-.5-.5-.5ZM3.5,1h1c1.378,0,2.5,1.122,2.5,2.5v.5H1v-.5c0-1.378,1.122-2.5,2.5-2.5ZM1,9.171c.32-.113.655-.171,1-.171,1.654,0,3,1.346,3,3s-1.346,3-3,3c-.345,0-.68-.057-1-.171v-5.659Zm6,11.329c0,1.378-1.122,2.5-2.5,2.5h-1c-1.378,0-2.5-1.122-2.5-2.5v-.5h6v.5Zm6-5c0,1.93-1.57,3.5-3.5,3.5H1v-3.126c.324.084.658.126,1,.126,2.206,0,4-1.794,4-4s-1.794-4-4-4c-.342,0-.676.042-1,.126v-3.126h8.5c1.93,0,3.5,1.57,3.5,3.5v1.998c-.058.043-.115.089-.169.138-1.025.918-1.112,2.5-.189,3.53l.359.39v.943Zm-2-7.5c0,.552-.448,1-1,1s-1-.448-1-1,.448-1,1-1,1,.448,1,1Zm0,8c0,.552-.448,1-1,1s-1-.448-1-1,.448-1,1-1,1,.448,1,1Z"/>
</svg>
