<svg xmlns="http://www.w3.org/2000/svg" fill="none" viewBox="0 0 48 48" id="Newspaper-Outline--Streamline-Ionic-Outline" height="48" width="48">
  <desc>
    Newspaper Outline Streamline Icon: https://streamlinehq.com
  </desc>
  <path stroke="#b3b388" stroke-linejoin="round" d="M35.7602 40.7853V4.68c-0.0019 -0.6677 -0.2681 -1.3076 -0.7402 -1.7798 -0.4722 -0.4721 -1.112 -0.7383 -1.7798 -0.7402h-28.56c-0.6678 0.0019 -1.3076 0.2681 -1.7798 0.7402 -0.4722 0.4722 -0.7383 1.112 -0.7402 1.7798v36.96c0.0033 1.1129 0.4469 2.1793 1.2338 2.9662 0.7869 0.7869 1.8533 1.2304 2.9662 1.2338h34.44" stroke-width="3"></path>
  <path stroke="#b3b388" stroke-linejoin="round" d="M40.7998 45.8394c-1.3366 0 -2.6185 -0.531 -3.5637 -1.4761 -0.9453 -0.9453 -1.4763 -2.2273 -1.4763 -3.5639V10.5595h7.56c0.6684 0 1.3094 0.2655 1.7821 0.7379 0.4725 0.4727 0.7379 1.1138 0.7379 1.7821v27.7199c0 1.3366 -0.5309 2.6186 -1.4761 3.5639 -0.9452 0.9451 -2.2272 1.4761 -3.5639 1.4761Z" stroke-width="3"></path>
  <path stroke="#b3b388" stroke-linecap="round" stroke-linejoin="round" d="M22.3196 10.5595h6.7207" stroke-width="3"></path>
  <path stroke="#b3b388" stroke-linecap="round" stroke-linejoin="round" d="M22.3196 17.28h6.7207" stroke-width="3"></path>
  <path stroke="#b3b388" stroke-linecap="round" stroke-linejoin="round" d="M8.8791 23.9995h20.16" stroke-width="3"></path>
  <path stroke="#b3b388" stroke-linecap="round" stroke-linejoin="round" d="M8.8791 30.7195h20.16" stroke-width="3"></path>
  <path stroke="#b3b388" stroke-linecap="round" stroke-linejoin="round" d="M8.8791 37.44h20.16" stroke-width="3"></path>
  <path fill="#b3b388" d="M15.6005 18.9605H8.8797c-0.4455 0 -0.8729 -0.1771 -1.188 -0.492 -0.3151 -0.3152 -0.4921 -0.7426 -0.4921 -1.1881v-6.7208c0 -0.4456 0.177 -0.8729 0.4921 -1.1881 0.3151 -0.3149 0.7425 -0.492 1.188 -0.492h6.7208c0.4456 0 0.873 0.177 1.1881 0.492 0.3151 0.3152 0.492 0.7426 0.492 1.1881v6.7208c0 0.4455 -0.1769 0.8729 -0.492 1.1881 -0.3152 0.3149 -0.7425 0.492 -1.1881 0.492Z" stroke-width="3"></path>
</svg>