<svg xmlns="http://www.w3.org/2000/svg" fill="none" viewBox="-1.5 -1.5 48 48" id="People-Circle-Outline--Streamline-Ionic-Outline" height="48" width="48">
  <desc>
    People Circle Outline Streamline Icon: https://streamlinehq.com
  </desc>
  <path fill="#b3b388" d="M22.5 44.550000000000004C10.34175 44.550000000000004 0.44999999999999996 34.65825 0.44999999999999996 22.5S10.34175 0.44999999999999996 22.5 0.44999999999999996 44.550000000000004 10.34184375 44.550000000000004 22.5c0 12.15825 -9.89175 22.05 -22.05 22.05Zm0 -40.70765625C12.21703125 3.8423437499999995 3.8423437499999995 12.21703125 3.8423437499999995 22.5c0 10.282875 8.3746875 18.65765625 18.65765625 18.65765625 10.282875 0 18.65765625 -8.3694375 18.65765625 -18.65765625 0 -10.28821875 -8.3694375 -18.65765625 -18.65765625 -18.65765625Z" stroke-width="3"></path>
  <path fill="#b3b388" d="M29.673375 26.316374999999997c-1.84453125 0 -3.62653125 -0.8184375 -5.0184375 -2.303625 -1.37671875 -1.49334375 -2.1999375 -3.413625 -2.33221875 -5.44040625 -0.1558125 -2.19440625 0.5173125 -4.213875 1.8954374999999999 -5.6842500000000005 1.378125 -1.470375 3.3043125 -2.26115625 5.45521875 -2.26115625 2.1351562499999996 0 4.067625 0.8077500000000001 5.44153125 2.2749375 1.3738125 1.4671874999999999 2.064 3.498375 1.90809375 5.672625 -0.13471875 2.02565625 -0.9575625000000001 3.9444375 -2.332125 5.43825 -1.39303125 1.4851875 -3.1740000000000004 2.303625 -5.0175 2.303625Z" stroke-width="3"></path>
  <path fill="#b3b388" d="M12.7280625 26.672343750000003c-3.154875 0 -5.9292187499999995 -2.916375 -6.1835625 -6.5015624999999995 -0.13040625 -1.8361874999999999 0.43996875 -3.53334375 1.60809375 -4.779 1.1683124999999999 -1.2455625 2.7796874999999996 -1.9081875000000001 4.5744375 -1.9081875000000001 1.7946562499999998 0 3.4050000000000002 0.6827812499999999 4.5658125 1.923 1.16071875 1.24040625 1.74909375 2.9492812500000003 1.616625 4.77046875 -0.25865625 3.5799374999999998 -3.031875 6.49528125 -6.181406249999999 6.49528125Z" stroke-width="3"></path>
  <path fill="#b3b388" d="M39.9245625 33.0241875c-0.16856249999999998 -0.4981875 -0.5788125 -1.0292812500000001 -1.4014687499999998 -1.5328125 -2.4869062499999997 -1.51921875 -5.54634375 -2.3227499999999996 -8.849625 -2.3227499999999996 -3.24075 0 -6.3849375 0.83746875 -8.85496875 2.35875 -2.78278125 1.7141250000000001 -4.6528125000000005 4.213875 -5.40646875 7.22765625 -0.178125 0.70921875 -0.43781250000000005 2.02903125 -0.16012500000000002 2.76796875 4.45715625 1.69490625 9.367593750000001 1.7726250000000001 13.87621875 0.21975 4.508624999999999 -1.552875 8.32959375 -4.6382812499999995 10.79746875 -8.718562499999999h-0.00103125Z" stroke-width="3"></path>
  <path fill="#b3b388" d="M12.707906249999999 37.911c0.74953125 -2.99053125 2.34496875 -5.4838125 4.820250000000001 -7.50009375 0.11699999999999999 -0.09675 0.20606249999999998 -0.22275 0.2578125 -0.36553125000000003 0.0515625 -0.14259375000000002 0.064125 -0.29643749999999996 0.036 -0.4455 -0.02803125 -0.14896875 -0.09543750000000001 -0.288 -0.19546875 -0.40209375 -0.10003125 -0.11409375000000001 -0.22884375 -0.1993125 -0.37284375 -0.24675 -1.2721875 -0.40603125 -2.724375 -0.62325 -4.5255937500000005 -0.62325 -2.5251562499999998 0 -5.20603125 0.6838125 -7.2234375 1.9261875000000002 -0.5724375 0.35296875 -1.13428125 0.48871875 -1.56675 0.6095625 1.7364375 3.8379375 4.6161562499999995 7.0456875 8.24540625 9.1846875l0.18975 -0.014812500000000001c0.04134375 -0.7168125 0.15365625 -1.42771875 0.33487500000000003 -2.12240625Z" stroke-width="3"></path>
</svg>