<svg xmlns="http://www.w3.org/2000/svg" fill="none" viewBox="0 0 48 48" id="Receipt-Outline--Streamline-Ionic-Outline" height="48" width="48">
  <desc>
    Receipt Outline Streamline Icon: https://streamlinehq.com
  </desc>
  <path stroke="#b3b388" stroke-linejoin="round" d="M14.9995 31.502V4.50195l3 1.50001 3 -1.50001 2.9944 1.50001 3.0347 -1.50001 2.9709 1.50001 2.9803 -1.50001 2.9935 1.50001 3.0262 -1.50001 3.001 1.50001 2.999 -1.50001V25.502" stroke-width="3"></path>
  <path stroke="#b3b388" stroke-linejoin="round" d="M44.9999 25.502v10.5c0 1.9891 -0.7902 3.8968 -2.1968 5.3033 -1.4065 1.4065 -3.3141 2.1967 -5.3032 2.1967m0 0c-1.9892 0 -3.8968 -0.7902 -5.3034 -2.1967 -1.4065 -1.4065 -2.1966 -3.3142 -2.1966 -5.3033v-4.5H4.49982c-0.19747 -0.0018 -0.39331 0.0358 -0.57609 0.1106 -0.18278 0.0747 -0.34883 0.1851 -0.48848 0.3248 -0.13964 0.1396 -0.25005 0.3057 -0.32482 0.4885 -0.07476 0.1828 -0.11236 0.3786 -0.11062 0.5761 0 6 0.63188 10.5 7.50009 10.5h27Z" stroke-width="3"></path>
  <path stroke="#b3b388" stroke-linecap="round" stroke-linejoin="round" d="M20.9998 13.502h18" stroke-width="3"></path>
  <path stroke="#b3b388" stroke-linecap="round" stroke-linejoin="round" d="M27 21.002h12" stroke-width="3"></path>
</svg>