<svg xmlns="http://www.w3.org/2000/svg" fill="none" viewBox="0 0 48 48" id="Speedometer-Outline--Streamline-Ionic-Outline" height="48" width="48">
  <desc>
    Speedometer Outline Streamline Icon: https://streamlinehq.com
  </desc>
  <path fill="#b3b388" d="m30.5719 21.7421 -4.4531 7.0782c-0.1822 0.2524 -0.4037 0.4741 -0.6563 0.6562 -0.6094 0.4253 -1.3621 0.593 -2.0945 0.4667 -0.7325 -0.1263 -1.3856 -0.5361 -1.8176 -1.1409 -0.432 -0.6048 -0.6079 -1.3557 -0.4899 -2.0894 0.1181 -0.7338 0.5209 -1.3914 1.1208 -1.8301l7.0781 -4.4532c0.161 -0.1121 0.3523 -0.1723 0.5485 -0.1723 0.1961 0.0002 0.3875 0.0602 0.5484 0.1723 0.2021 0.1459 0.3383 0.3658 0.3787 0.6118 0.0404 0.246 -0.0182 0.4979 -0.1631 0.7007Z" stroke-width="3"></path>
  <path stroke="#b3b388" stroke-linecap="round" stroke-linejoin="round" d="M24 6.00244c-11.5969 0 -20.99998 9.39376 -20.99998 20.99066 -0.00712 5.1308 1.87129 10.0854 5.27813 13.9219 0.10313 0.1125 0.19688 0.225 0.3 0.3281 0.22185 0.2402 0.49116 0.4317 0.79087 0.5623 0.29971 0.1307 0.62333 0.1977 0.95028 0.1969 0.327 -0.0008 0.6501 -0.0697 0.9492 -0.2019 0.2989 -0.1323 0.5673 -0.3253 0.7878 -0.5667 1.5201 -1.652 3.3665 -2.9707 5.4223 -3.8727 2.0558 -0.902 4.2764 -1.3677 6.5214 -1.3677 2.2451 0 4.4656 0.4657 6.5215 1.3677 2.0558 0.902 3.9021 2.2207 5.4223 3.8727 0.2206 0.2414 0.4888 0.4344 0.7879 0.5667 0.2989 0.1322 0.6222 0.2011 0.9491 0.2019 0.327 0.0008 0.6505 -0.0662 0.9502 -0.1969 0.2998 -0.1306 0.5691 -0.3221 0.7909 -0.5623l0.3 -0.3281c3.4069 -3.8365 5.2853 -8.7911 5.2782 -13.9219 0 -11.5969 -9.4032 -20.99066 -21.0001 -20.99066Z" stroke-width="3"></path>
  <path stroke="#b3b388" stroke-linecap="round" stroke-miterlimit="10" d="M24.0002 12.002v3.0009" stroke-width="3"></path>
  <path stroke="#b3b388" stroke-linecap="round" stroke-miterlimit="10" d="M39.0012 27.002h-3.001" stroke-width="3"></path>
  <path stroke="#b3b388" stroke-linecap="round" stroke-miterlimit="10" d="M12.0012 27.002H9.00024" stroke-width="3"></path>
  <path stroke="#b3b388" stroke-linecap="round" stroke-miterlimit="10" d="m15.5153 18.5172 -2.1222 -2.1222" stroke-width="3"></path>
  <path stroke="#b3b388" stroke-linecap="round" stroke-miterlimit="10" d="m32.4854 18.5172 2.1222 -2.1222" stroke-width="3"></path>
</svg>