<?xml version="1.0" encoding="UTF-8"?>
<svg xmlns="http://www.w3.org/2000/svg" id="Layer_1" data-name="Layer 1" viewBox="0 0 24 24">
  <path d="M12.008,1.097h-.006C4.932,1.141,1.127,4.952,1,12.136c.113,6.179,2.814,9.799,8.028,10.759,.03,.005,.163,.023,.281-.029,.153-.067,3.846-1.479,7.446-4.323,3.659-2.891,6.047-6.318,6.149-6.458,.065-.09,.1-.2,.096-.311C22.696,3.006,16.855,1.128,12.008,1.097ZM2,12.135c.117-6.619,3.483-9.997,10.005-10.039,4.286,.029,9.426,1.645,9.961,9.065-.734-.101-1.518-.156-2.345-.16-7.084,.042-10.782,3.666-10.994,10.789-4.357-1.025-6.525-4.195-6.626-9.654Zm14.098,5.514c-2.574,2.033-5.235,3.395-6.466,3.975,.249-6.436,3.521-9.586,9.989-9.623,.698,.004,1.364,.045,1.99,.122-.879,1.099-2.89,3.453-5.513,5.526Z"/>
</svg>
