<svg xmlns="http://www.w3.org/2000/svg" fill="none" viewBox="0 0 48 48" id="Storefront-Outline--Streamline-Ionic-Outline" height="48" width="48">
  <desc>
    Storefront Outline Streamline Icon: https://streamlinehq.com
  </desc>
  <path stroke="#b3b388" stroke-linecap="round" stroke-linejoin="round" d="M41.9995 42.0025V22.5024" stroke-width="3"></path>
  <path stroke="#b3b388" stroke-linecap="round" stroke-linejoin="round" d="M5.99976 22.5024v19.5001" stroke-width="3"></path>
  <path stroke="#b3b388" stroke-linecap="round" stroke-linejoin="round" d="M35.8563 4.50244H12.1432c-2.0428 0 -3.88786 1.125 -4.68099 2.85563L3.40283 16.2212c-1.36687 2.9822 0.90282 6.361 4.42407 6.4688l0.1875 0c2.9438 0 5.3297 -2.3607 5.3297 -4.8966 0 2.5312 2.3869 4.8966 5.3306 4.8966 2.9438 0 5.3251 -2.1919 5.3251 -4.8966 0 2.5312 2.3859 4.8966 5.3296 4.8966 2.9438 0 5.3307 -2.1919 5.3307 -4.8966 0 2.7047 2.3859 4.8966 5.3297 4.8966l0.1828 0c3.5212 -0.1097 5.7909 -3.4885 4.424 -6.4688l-4.0593 -8.86313c-0.7932 -1.73063 -2.6382 -2.85563 -4.681 -2.85563Z" stroke-width="3"></path>
  <path stroke="#b3b388" stroke-linecap="round" stroke-linejoin="round" d="M2.99976 43.502H44.9998" stroke-width="3"></path>
  <path stroke="#b3b388" stroke-linecap="round" stroke-linejoin="round" d="M12.7498 27.0024h7.5c0.5967 0 1.169 0.2371 1.591 0.659 0.4219 0.422 0.659 0.9943 0.659 1.591v8.2501h-12v-8.2501c0 -0.5967 0.237 -1.169 0.6589 -1.591 0.422 -0.4219 0.9943 -0.659 1.5911 -0.659Z" stroke-width="3"></path>
  <path stroke="#b3b388" stroke-linecap="round" stroke-linejoin="round" d="M27 43.5025V29.2524c0 -0.5967 0.2371 -1.169 0.659 -1.591 0.4219 -0.4219 0.9943 -0.659 1.591 -0.659h6c0.5967 0 1.1691 0.2371 1.591 0.659 0.4219 0.422 0.659 0.9943 0.659 1.591v14.2501" stroke-width="3"></path>
</svg>