<?xml version="1.0" encoding="UTF-8"?>
<svg xmlns="http://www.w3.org/2000/svg" id="Layer_1" data-name="Layer 1" viewBox="0 0 24 24">
  <path d="M10,14v-1c0-.552-.448-1-1-1h-2c-.552,0-1,.448-1,1v1h-1v-1c0-1.103,.897-2,2-2h2c1.103,0,2,.897,2,2v1h-1Zm1-6c0-1.103,.897-2,2-2s2,.897,2,2-.897,2-2,2-2-.897-2-2Zm1,0c0,.552,.448,1,1,1s1-.448,1-1-.448-1-1-1-1,.448-1,1Zm.444,3c.181,.31,.322,.644,.414,1h1.142c.552,0,1,.448,1,1v1h1v-1c0-1.103-.897-2-2-2h-1.556Zm-.771-5.718l.241,.181,1.091-.844,1.087,.841,.25-.174-.442-1.343,1.1-.636v-.305h-1.442l-.392-1.5h-.323l-.393,1.5h-1.45v.307l1.107,.616-.435,1.359ZM1.673,5.282l.241,.181,1.091-.844,1.087,.841,.25-.174-.442-1.343,1.1-.636v-.305h-1.442l-.392-1.5h-.323l-.393,1.5H1v.307l1.107,.616-.435,1.359Zm-.673,7.718c0-.552,.448-1,1-1h1.142c.092-.356,.233-.69,.414-1h-1.556c-1.103,0-2,.897-2,2v1H1v-1Zm0-5c0-1.103,.897-2,2-2s2,.897,2,2-.897,2-2,2-2-.897-2-2Zm1,0c0,.552,.448,1,1,1s1-.448,1-1-.448-1-1-1-1,.448-1,1Zm6,2c-1.103,0-2-.897-2-2s.897-2,2-2,2,.897,2,2-.897,2-2,2Zm0-1c.552,0,1-.448,1-1s-.448-1-1-1-1,.448-1,1,.448,1,1,1Zm15.181,3.655c-.984-.924-2.66-.853-3.548,.166l-3.742,4.112c-.312-1.111-1.324-1.933-2.534-1.933H2.5c-1.379,0-2.5,1.121-2.5,2.5v6.5H1v-6.5c0-.827,.673-1.5,1.5-1.5H13.357c.905,0,1.643,.737,1.643,1.643,0,.812-.605,1.511-1.403,1.624l-5.661,.737,.129,.992,5.667-.738c1.015-.145,1.827-.872,2.132-1.809l4.509-4.955c.536-.611,1.542-.661,2.135-.1,.609,.555,.658,1.507,.109,2.123l-7.558,8.483h1.339l6.966-7.818c.912-1.022,.83-2.604-.182-3.527ZM6.341,4.852l.301,.226,1.364-1.055,1.359,1.051,.312-.218-.552-1.679,1.375-.796v-.382h-1.802l-.49-1.875h-.404l-.491,1.875h-1.812v.384l1.384,.77-.543,1.698Z"/>
</svg>
